<svg xmlns="http://www.w3.org/2000/svg" width="1200" height="630" viewBox="0 0 1200 630">
  <defs>
    <linearGradient id="bg" x1="0%" y1="0%" x2="100%" y2="100%">
      <stop offset="0%" style="stop-color:#1a1a2e"/>
      <stop offset="100%" style="stop-color:#0d0d1a"/>
    </linearGradient>
  </defs>
  <rect width="1200" height="630" fill="url(#bg)"/>
  
  <rect x="60" y="80" width="55" height="30" rx="6" fill="#EF4444" opacity="0.9"/>
  <rect x="130" y="80" width="55" height="30" rx="6" fill="#F97316" opacity="0.9"/>
  <rect x="200" y="80" width="55" height="30" rx="6" fill="#EF4444" opacity="0.8"/>
  <rect x="60" y="125" width="55" height="30" rx="6" fill="#F97316" opacity="0.8"/>
  <rect x="130" y="125" width="55" height="30" rx="6" fill="#EF4444" opacity="0.7"/>
  <rect x="200" y="125" width="55" height="30" rx="6" fill="#F97316" opacity="0.7"/>
  <rect x="60" y="170" width="55" height="30" rx="6" fill="#EF4444" opacity="0.6"/>
  <rect x="130" y="170" width="55" height="30" rx="6" fill="#F97316" opacity="0.6"/>
  <circle cx="160" cy="380" r="16" fill="white" opacity="0.9"/>
  <rect x="100" y="480" width="120" height="18" rx="9" fill="white" opacity="0.6"/>
  <rect x="1050" y="80" width="55" height="30" rx="6" fill="#F97316" opacity="0.4"/>
  <rect x="1050" y="125" width="55" height="30" rx="6" fill="#EF4444" opacity="0.3"/>
  <rect x="1050" y="170" width="55" height="30" rx="6" fill="#F97316" opacity="0.25"/>
  <text x="600" y="200" font-family="system-ui, -apple-system, sans-serif" font-size="28" font-weight="600" fill="#F97316" text-anchor="middle" letter-spacing="4">TINYJOY</text>
  <text x="600" y="320" font-family="system-ui, -apple-system, sans-serif" font-size="88" font-weight="800" fill="white" text-anchor="middle">Brick Breaker</text>
  <text x="600" y="400" font-family="system-ui, -apple-system, sans-serif" font-size="32" font-weight="400" fill="#a1a1aa" text-anchor="middle">Clear all bricks with the bouncing ball</text>
  <rect x="350" y="460" width="500" height="60" rx="30" fill="#F97316" opacity="0.15"/>
  <text x="600" y="498" font-family="system-ui, -apple-system, sans-serif" font-size="22" font-weight="600" fill="#F97316" text-anchor="middle" letter-spacing="2">FREE · NO DOWNLOAD · PLAY NOW</text>
</svg>