<svg xmlns="http://www.w3.org/2000/svg" width="1200" height="630" viewBox="0 0 1200 630">
  <defs>
    <linearGradient id="bg" x1="0%" y1="0%" x2="100%" y2="100%">
      <stop offset="0%" style="stop-color:#1a1a2e"/>
      <stop offset="100%" style="stop-color:#0d0d1a"/>
    </linearGradient>
  </defs>
  <rect width="1200" height="630" fill="url(#bg)"/>
  
  <rect x="80" y="0" width="50" height="180" rx="8" fill="#16A34A" opacity="0.7"/>
  <rect x="80" y="280" width="50" height="350" rx="8" fill="#16A34A" opacity="0.7"/>
  <ellipse cx="160" cy="250" rx="28" ry="22" fill="#FBBF24" opacity="0.9"/>
  <circle cx="170" cy="244" r="6" fill="white" opacity="0.9"/>
  <polygon points="188,252 200,248 188,258" fill="#F97316" opacity="0.9"/>
  <rect x="220" y="0" width="50" height="120" rx="8" fill="#15803D" opacity="0.55"/>
  <rect x="220" y="220" width="50" height="410" rx="8" fill="#15803D" opacity="0.55"/>
  <rect x="1060" y="0" width="50" height="200" rx="8" fill="#16A34A" opacity="0.3"/>
  <rect x="1060" y="320" width="50" height="310" rx="8" fill="#16A34A" opacity="0.3"/>
  <text x="600" y="200" font-family="system-ui, -apple-system, sans-serif" font-size="28" font-weight="600" fill="#22C55E" text-anchor="middle" letter-spacing="4">TINYJOY</text>
  <text x="600" y="320" font-family="system-ui, -apple-system, sans-serif" font-size="88" font-weight="800" fill="white" text-anchor="middle">Flappy Jump</text>
  <text x="600" y="400" font-family="system-ui, -apple-system, sans-serif" font-size="32" font-weight="400" fill="#a1a1aa" text-anchor="middle">Tap to flap, dodge the pipes</text>
  <rect x="350" y="460" width="500" height="60" rx="30" fill="#22C55E" opacity="0.15"/>
  <text x="600" y="498" font-family="system-ui, -apple-system, sans-serif" font-size="22" font-weight="600" fill="#22C55E" text-anchor="middle" letter-spacing="2">FREE · NO DOWNLOAD · PLAY NOW</text>
</svg>