<svg xmlns="http://www.w3.org/2000/svg" width="1200" height="630" viewBox="0 0 1200 630">
  <defs>
    <linearGradient id="bg" x1="0%" y1="0%" x2="100%" y2="100%">
      <stop offset="0%" style="stop-color:#1a1a2e"/>
      <stop offset="100%" style="stop-color:#0d0d1a"/>
    </linearGradient>
  </defs>
  <rect width="1200" height="630" fill="url(#bg)"/>
  
  <line x1="80" y1="520" x2="260" y2="520" stroke="#94A3B8" stroke-width="6" stroke-linecap="round" opacity="0.8"/>
  <line x1="150" y1="520" x2="150" y2="80" stroke="#94A3B8" stroke-width="6" stroke-linecap="round" opacity="0.8"/>
  <line x1="150" y1="80" x2="230" y2="80" stroke="#94A3B8" stroke-width="6" stroke-linecap="round" opacity="0.8"/>
  <line x1="230" y1="80" x2="230" y2="120" stroke="#94A3B8" stroke-width="6" stroke-linecap="round" opacity="0.8"/>
  <circle cx="230" cy="150" r="30" fill="none" stroke="#94A3B8" stroke-width="5" opacity="0.8"/>
  <line x1="230" y1="180" x2="230" y2="280" stroke="#94A3B8" stroke-width="5" stroke-linecap="round" opacity="0.7"/>
  <line x1="230" y1="210" x2="195" y2="260" stroke="#94A3B8" stroke-width="5" stroke-linecap="round" opacity="0.7"/>
  <line x1="230" y1="210" x2="265" y2="260" stroke="#94A3B8" stroke-width="5" stroke-linecap="round" opacity="0.7"/>
  <line x1="230" y1="280" x2="200" y2="340" stroke="#94A3B8" stroke-width="5" stroke-linecap="round" opacity="0.7"/>
  <line x1="230" y1="280" x2="260" y2="340" stroke="#94A3B8" stroke-width="5" stroke-linecap="round" opacity="0.7"/>
  <rect x="900" y="460" width="60" height="60" rx="10" fill="#94A3B8" opacity="0.2"/>
  <text x="930" y="500" font-family="system-ui" font-size="28" font-weight="700" fill="#94A3B8" text-anchor="middle" opacity="0.5">A</text>
  <rect x="980" y="460" width="60" height="60" rx="10" fill="#94A3B8" opacity="0.15"/>
  <text x="1010" y="500" font-family="system-ui" font-size="28" font-weight="700" fill="#94A3B8" text-anchor="middle" opacity="0.4">B</text>
  <rect x="1060" y="460" width="60" height="60" rx="10" fill="#94A3B8" opacity="0.1"/>
  <text x="1090" y="500" font-family="system-ui" font-size="28" font-weight="700" fill="#94A3B8" text-anchor="middle" opacity="0.3">C</text>
  <text x="600" y="200" font-family="system-ui, -apple-system, sans-serif" font-size="28" font-weight="600" fill="#94A3B8" text-anchor="middle" letter-spacing="4">TINYJOY</text>
  <text x="600" y="320" font-family="system-ui, -apple-system, sans-serif" font-size="88" font-weight="800" fill="white" text-anchor="middle">Hangman</text>
  <text x="600" y="400" font-family="system-ui, -apple-system, sans-serif" font-size="32" font-weight="400" fill="#a1a1aa" text-anchor="middle">Guess the word one letter at a time</text>
  <rect x="350" y="460" width="500" height="60" rx="30" fill="#94A3B8" opacity="0.15"/>
  <text x="600" y="498" font-family="system-ui, -apple-system, sans-serif" font-size="22" font-weight="600" fill="#94A3B8" text-anchor="middle" letter-spacing="2">FREE · NO DOWNLOAD · PLAY NOW</text>
</svg>