<svg xmlns="http://www.w3.org/2000/svg" width="1200" height="630" viewBox="0 0 1200 630">
  <defs>
    <linearGradient id="bg" x1="0%" y1="0%" x2="100%" y2="100%">
      <stop offset="0%" style="stop-color:#1a1a2e"/>
      <stop offset="100%" style="stop-color:#0d0d1a"/>
    </linearGradient>
  </defs>
  <rect width="1200" height="630" fill="url(#bg)"/>
  
  <rect x="80" y="80" width="80" height="110" rx="12" fill="#8B5CF6" opacity="0.8"/>
  <text x="120" y="148" font-family="system-ui" font-size="36" fill="white" text-anchor="middle">?</text>
  <rect x="180" y="80" width="80" height="110" rx="12" fill="#6D28D9" opacity="0.8"/>
  <text x="220" y="148" font-family="system-ui" font-size="32" fill="white" text-anchor="middle">★</text>
  <rect x="80" y="210" width="80" height="110" rx="12" fill="#7C3AED" opacity="0.7"/>
  <text x="120" y="278" font-family="system-ui" font-size="32" fill="white" text-anchor="middle">♥</text>
  <rect x="180" y="210" width="80" height="110" rx="12" fill="#8B5CF6" opacity="0.6"/>
  <text x="220" y="278" font-family="system-ui" font-size="32" fill="white" text-anchor="middle">◆</text>
  <rect x="1040" y="80" width="80" height="110" rx="12" fill="#8B5CF6" opacity="0.4"/>
  <text x="1080" y="148" font-family="system-ui" font-size="36" fill="white" text-anchor="middle">?</text>
  <rect x="1040" y="210" width="80" height="110" rx="12" fill="#6D28D9" opacity="0.3"/>
  <text x="1080" y="278" font-family="system-ui" font-size="32" fill="white" text-anchor="middle">?</text>
  <text x="600" y="200" font-family="system-ui, -apple-system, sans-serif" font-size="28" font-weight="600" fill="#8B5CF6" text-anchor="middle" letter-spacing="4">TINYJOY</text>
  <text x="600" y="320" font-family="system-ui, -apple-system, sans-serif" font-size="88" font-weight="800" fill="white" text-anchor="middle">Memory Flip</text>
  <text x="600" y="400" font-family="system-ui, -apple-system, sans-serif" font-size="32" font-weight="400" fill="#a1a1aa" text-anchor="middle">Match all pairs before the clock runs out</text>
  <rect x="350" y="460" width="500" height="60" rx="30" fill="#8B5CF6" opacity="0.15"/>
  <text x="600" y="498" font-family="system-ui, -apple-system, sans-serif" font-size="22" font-weight="600" fill="#8B5CF6" text-anchor="middle" letter-spacing="2">FREE · NO DOWNLOAD · PLAY NOW</text>
</svg>