<svg xmlns="http://www.w3.org/2000/svg" width="1200" height="630" viewBox="0 0 1200 630">
  <defs>
    <linearGradient id="bg" x1="0%" y1="0%" x2="100%" y2="100%">
      <stop offset="0%" style="stop-color:#1a1a2e"/>
      <stop offset="100%" style="stop-color:#0d0d1a"/>
    </linearGradient>
  </defs>
  <rect width="1200" height="630" fill="url(#bg)"/>
  
  <rect x="70" y="80" width="55" height="55" rx="6" fill="#4F46E5" opacity="0.9"/>
  <text x="97" y="117" font-family="system-ui" font-size="24" font-weight="700" fill="#EF4444" text-anchor="middle">💣</text>
  <rect x="140" y="80" width="55" height="55" rx="6" fill="#4338CA" opacity="0.85"/>
  <text x="167" y="117" font-family="system-ui" font-size="24" font-weight="700" fill="white" text-anchor="middle">1</text>
  <rect x="210" y="80" width="55" height="55" rx="6" fill="#4F46E5" opacity="0.8"/>
  <text x="237" y="117" font-family="system-ui" font-size="24" font-weight="700" fill="#3B82F6" text-anchor="middle">2</text>
  <rect x="70" y="150" width="55" height="55" rx="6" fill="#4338CA" opacity="0.8"/>
  <text x="97" y="187" font-family="system-ui" font-size="24" font-weight="700" fill="#22C55E" text-anchor="middle">3</text>
  <rect x="140" y="150" width="55" height="55" rx="6" fill="#6366F1" opacity="0.7"/>
  <text x="167" y="187" font-family="system-ui" font-size="20" fill="white" text-anchor="middle">🚩</text>
  <rect x="210" y="150" width="55" height="55" rx="6" fill="#4F46E5" opacity="0.7"/>
  <text x="237" y="187" font-family="system-ui" font-size="24" font-weight="700" fill="#EF4444" text-anchor="middle">4</text>
  <rect x="70" y="220" width="55" height="55" rx="6" fill="#4338CA" opacity="0.6"/>
  <rect x="140" y="220" width="55" height="55" rx="6" fill="#6366F1" opacity="0.5"/>
  <rect x="210" y="220" width="55" height="55" rx="6" fill="#4F46E5" opacity="0.5"/>
  <rect x="1040" y="80" width="55" height="55" rx="6" fill="#4F46E5" opacity="0.3"/>
  <rect x="1040" y="150" width="55" height="55" rx="6" fill="#4338CA" opacity="0.25"/>
  <rect x="1040" y="220" width="55" height="55" rx="6" fill="#6366F1" opacity="0.2"/>
  <text x="600" y="200" font-family="system-ui, -apple-system, sans-serif" font-size="28" font-weight="600" fill="#6366F1" text-anchor="middle" letter-spacing="4">TINYJOY</text>
  <text x="600" y="320" font-family="system-ui, -apple-system, sans-serif" font-size="88" font-weight="800" fill="white" text-anchor="middle">Minesweeper</text>
  <text x="600" y="400" font-family="system-ui, -apple-system, sans-serif" font-size="32" font-weight="400" fill="#a1a1aa" text-anchor="middle">Flag the mines, clear the board</text>
  <rect x="350" y="460" width="500" height="60" rx="30" fill="#6366F1" opacity="0.15"/>
  <text x="600" y="498" font-family="system-ui, -apple-system, sans-serif" font-size="22" font-weight="600" fill="#6366F1" text-anchor="middle" letter-spacing="2">FREE · NO DOWNLOAD · PLAY NOW</text>
</svg>