<svg xmlns="http://www.w3.org/2000/svg" width="1200" height="630" viewBox="0 0 1200 630">
  <defs>
    <linearGradient id="bg" x1="0%" y1="0%" x2="100%" y2="100%">
      <stop offset="0%" style="stop-color:#1a1a2e"/>
      <stop offset="100%" style="stop-color:#0d0d1a"/>
    </linearGradient>
  </defs>
  <rect width="1200" height="630" fill="url(#bg)"/>
  
  <rect x="60" y="380" width="300" height="100" rx="12" fill="#1e293b" opacity="0.8"/>
  <rect x="80" y="410" width="55" height="38" rx="6" fill="#334155" opacity="0.9"/>
  <text x="107" y="435" font-family="system-ui" font-size="18" font-weight="600" fill="#94A3B8" text-anchor="middle">Q</text>
  <rect x="148" y="410" width="55" height="38" rx="6" fill="#334155" opacity="0.9"/>
  <text x="175" y="435" font-family="system-ui" font-size="18" font-weight="600" fill="#94A3B8" text-anchor="middle">W</text>
  <rect x="216" y="410" width="55" height="38" rx="6" fill="#3B82F6" opacity="0.9"/>
  <text x="243" y="435" font-family="system-ui" font-size="18" font-weight="700" fill="white" text-anchor="middle">E</text>
  <rect x="284" y="410" width="55" height="38" rx="6" fill="#334155" opacity="0.9"/>
  <text x="311" y="435" font-family="system-ui" font-size="18" font-weight="600" fill="#94A3B8" text-anchor="middle">R</text>
  <text x="200" y="200" font-family="system-ui" font-size="24" fill="#94A3B8" text-anchor="middle" opacity="0.8">the quick brown fox</text>
  <text x="200" y="240" font-family="system-ui" font-size="24" fill="#22C55E" text-anchor="middle" opacity="0.9">the quick</text>
  <rect x="1040" y="380" width="120" height="100" rx="12" fill="#1e293b" opacity="0.4"/>
  <rect x="1050" y="400" width="45" height="30" rx="5" fill="#334155" opacity="0.5"/>
  <rect x="1105" y="400" width="45" height="30" rx="5" fill="#334155" opacity="0.5"/>
  <rect x="1050" y="445" width="100" height="20" rx="5" fill="#334155" opacity="0.5"/>
  <text x="270" y="130" font-family="system-ui" font-size="48" font-weight="800" fill="#3B82F6" text-anchor="middle" opacity="0.6">87</text>
  <text x="270" y="165" font-family="system-ui" font-size="20" fill="#94A3B8" text-anchor="middle" opacity="0.6">WPM</text>
  <text x="600" y="200" font-family="system-ui, -apple-system, sans-serif" font-size="28" font-weight="600" fill="#3B82F6" text-anchor="middle" letter-spacing="4">TINYJOY</text>
  <text x="600" y="320" font-family="system-ui, -apple-system, sans-serif" font-size="88" font-weight="800" fill="white" text-anchor="middle">Typing Speed</text>
  <text x="600" y="400" font-family="system-ui, -apple-system, sans-serif" font-size="32" font-weight="400" fill="#a1a1aa" text-anchor="middle">How fast can you type? Find out now.</text>
  <rect x="350" y="460" width="500" height="60" rx="30" fill="#3B82F6" opacity="0.15"/>
  <text x="600" y="498" font-family="system-ui, -apple-system, sans-serif" font-size="22" font-weight="600" fill="#3B82F6" text-anchor="middle" letter-spacing="2">FREE · NO DOWNLOAD · PLAY NOW</text>
</svg>