<svg xmlns="http://www.w3.org/2000/svg" width="1200" height="630" viewBox="0 0 1200 630">
  <defs>
    <linearGradient id="bg" x1="0%" y1="0%" x2="100%" y2="100%">
      <stop offset="0%" style="stop-color:#1a1a2e"/>
      <stop offset="100%" style="stop-color:#0d0d1a"/>
    </linearGradient>
  </defs>
  <rect width="1200" height="630" fill="url(#bg)"/>
  
  <ellipse cx="110" cy="320" rx="45" ry="20" fill="#78350F" opacity="0.8"/>
  <ellipse cx="110" cy="260" rx="38" ry="45" fill="#92400E" opacity="0.9"/>
  <ellipse cx="110" cy="248" rx="22" ry="20" fill="#A16207" opacity="0.9"/>
  <circle cx="98" cy="248" r="5" fill="#1e293b" opacity="0.9"/>
  <circle cx="122" cy="248" r="5" fill="#1e293b" opacity="0.9"/>
  <ellipse cx="200" cy="360" rx="45" ry="20" fill="#78350F" opacity="0.7"/>
  <ellipse cx="1080" cy="380" rx="45" ry="20" fill="#78350F" opacity="0.3"/>
  <circle cx="160" cy="150" r="30" fill="#FBBF24" opacity="0.9"/>
  <line x1="150" y1="140" x2="130" y2="120" stroke="#F59E0B" stroke-width="6" stroke-linecap="round" opacity="0.8"/>
  <line x1="170" y1="140" x2="185" y2="118" stroke="#F59E0B" stroke-width="6" stroke-linecap="round" opacity="0.8"/>
  <line x1="160" y1="135" x2="160" y2="110" stroke="#F59E0B" stroke-width="6" stroke-linecap="round" opacity="0.8"/>
  <text x="160" y="160" font-family="system-ui" font-size="20" font-weight="700" fill="white" text-anchor="middle" opacity="0.9">POW!</text>
  <text x="600" y="200" font-family="system-ui, -apple-system, sans-serif" font-size="28" font-weight="600" fill="#F59E0B" text-anchor="middle" letter-spacing="4">TINYJOY</text>
  <text x="600" y="320" font-family="system-ui, -apple-system, sans-serif" font-size="88" font-weight="800" fill="white" text-anchor="middle">Whack-a-Mole</text>
  <text x="600" y="400" font-family="system-ui, -apple-system, sans-serif" font-size="32" font-weight="400" fill="#a1a1aa" text-anchor="middle">Tap the moles before they hide!</text>
  <rect x="350" y="460" width="500" height="60" rx="30" fill="#F59E0B" opacity="0.15"/>
  <text x="600" y="498" font-family="system-ui, -apple-system, sans-serif" font-size="22" font-weight="600" fill="#F59E0B" text-anchor="middle" letter-spacing="2">FREE · NO DOWNLOAD · PLAY NOW</text>
</svg>