<svg xmlns="http://www.w3.org/2000/svg" width="1200" height="630" viewBox="0 0 1200 630">
  <defs>
    <linearGradient id="bg" x1="0%" y1="0%" x2="100%" y2="100%">
      <stop offset="0%" style="stop-color:#1a1a2e"/>
      <stop offset="100%" style="stop-color:#0d0d1a"/>
    </linearGradient>
  </defs>
  <rect width="1200" height="630" fill="url(#bg)"/>
  
  <rect x="70" y="80" width="55" height="55" rx="6" fill="#22C55E" opacity="0.9"/>
  <text x="97" y="118" font-family="system-ui" font-size="28" font-weight="700" fill="white" text-anchor="middle">W</text>
  <rect x="140" y="80" width="55" height="55" rx="6" fill="#16A34A" opacity="0.85"/>
  <text x="167" y="118" font-family="system-ui" font-size="28" font-weight="700" fill="white" text-anchor="middle">O</text>
  <rect x="210" y="80" width="55" height="55" rx="6" fill="#F59E0B" opacity="0.85"/>
  <text x="237" y="118" font-family="system-ui" font-size="28" font-weight="700" fill="white" text-anchor="middle">R</text>
  <rect x="70" y="150" width="55" height="55" rx="6" fill="#334155" opacity="0.7"/>
  <text x="97" y="188" font-family="system-ui" font-size="28" font-weight="700" fill="white" text-anchor="middle">D</text>
  <rect x="140" y="150" width="55" height="55" rx="6" fill="#22C55E" opacity="0.7"/>
  <text x="167" y="188" font-family="system-ui" font-size="28" font-weight="700" fill="white" text-anchor="middle">L</text>
  <rect x="210" y="150" width="55" height="55" rx="6" fill="#334155" opacity="0.6"/>
  <text x="237" y="188" font-family="system-ui" font-size="28" font-weight="700" fill="white" text-anchor="middle">E</text>
  <rect x="70" y="220" width="55" height="55" rx="6" fill="#334155" opacity="0.5"/>
  <rect x="140" y="220" width="55" height="55" rx="6" fill="#16A34A" opacity="0.5"/>
  <rect x="210" y="220" width="55" height="55" rx="6" fill="#334155" opacity="0.4"/>
  <rect x="1040" y="80" width="55" height="55" rx="6" fill="#334155" opacity="0.3"/>
  <rect x="1040" y="150" width="55" height="55" rx="6" fill="#22C55E" opacity="0.25"/>
  <rect x="1040" y="220" width="55" height="55" rx="6" fill="#334155" opacity="0.2"/>
  <text x="600" y="200" font-family="system-ui, -apple-system, sans-serif" font-size="28" font-weight="600" fill="#22C55E" text-anchor="middle" letter-spacing="4">TINYJOY</text>
  <text x="600" y="320" font-family="system-ui, -apple-system, sans-serif" font-size="88" font-weight="800" fill="white" text-anchor="middle">Word Guess</text>
  <text x="600" y="400" font-family="system-ui, -apple-system, sans-serif" font-size="32" font-weight="400" fill="#a1a1aa" text-anchor="middle">Guess the 5-letter word in 6 tries</text>
  <rect x="350" y="460" width="500" height="60" rx="30" fill="#22C55E" opacity="0.15"/>
  <text x="600" y="498" font-family="system-ui, -apple-system, sans-serif" font-size="22" font-weight="600" fill="#22C55E" text-anchor="middle" letter-spacing="2">FREE · NO DOWNLOAD · PLAY NOW</text>
</svg>