<svg xmlns="http://www.w3.org/2000/svg" width="1200" height="630" viewBox="0 0 1200 630">
  <defs>
    <linearGradient id="bg" x1="0%" y1="0%" x2="100%" y2="100%">
      <stop offset="0%" style="stop-color:#1a1a2e"/>
      <stop offset="100%" style="stop-color:#0d0d1a"/>
    </linearGradient>
  </defs>
  <rect width="1200" height="630" fill="url(#bg)"/>
  <!-- Letter tiles -->
  <rect x="70" y="100" width="76" height="76" rx="10" fill="#10B981" opacity="0.9"/>
  <text x="108" y="153" font-family="system-ui" font-size="40" font-weight="700" fill="white" text-anchor="middle">W</text>
  <rect x="158" y="100" width="76" height="76" rx="10" fill="#059669" opacity="0.85"/>
  <text x="196" y="153" font-family="system-ui" font-size="40" font-weight="700" fill="white" text-anchor="middle">O</text>
  <rect x="114" y="190" width="76" height="76" rx="10" fill="#10B981" opacity="0.75"/>
  <text x="152" y="243" font-family="system-ui" font-size="40" font-weight="700" fill="white" text-anchor="middle">R</text>
  <rect x="70" y="280" width="76" height="76" rx="10" fill="#059669" opacity="0.65"/>
  <text x="108" y="333" font-family="system-ui" font-size="40" font-weight="700" fill="white" text-anchor="middle">D</text>
  <rect x="158" y="280" width="76" height="76" rx="10" fill="#10B981" opacity="0.5"/>
  <text x="196" y="333" font-family="system-ui" font-size="40" font-weight="700" fill="white" text-anchor="middle">S</text>
  <!-- Right side tiles -->
  <rect x="1020" y="100" width="70" height="70" rx="10" fill="#10B981" opacity="0.35"/>
  <text x="1055" y="147" font-family="system-ui" font-size="36" font-weight="700" fill="white" text-anchor="middle">A</text>
  <rect x="1020" y="190" width="70" height="70" rx="10" fill="#059669" opacity="0.25"/>
  <text x="1055" y="237" font-family="system-ui" font-size="36" font-weight="700" fill="white" text-anchor="middle">Z</text>
  <rect x="1020" y="280" width="70" height="70" rx="10" fill="#10B981" opacity="0.15"/>
  <!-- TinyJoy branding -->
  <text x="600" y="200" font-family="system-ui, -apple-system, sans-serif" font-size="28" font-weight="600" fill="#10B981" text-anchor="middle" letter-spacing="4">TINYJOY</text>
  <!-- Game name -->
  <text x="600" y="320" font-family="system-ui, -apple-system, sans-serif" font-size="80" font-weight="800" fill="white" text-anchor="middle">Word Scramble</text>
  <!-- Tagline -->
  <text x="600" y="400" font-family="system-ui, -apple-system, sans-serif" font-size="32" font-weight="400" fill="#a1a1aa" text-anchor="middle">Unscramble as many words as you can</text>
  <!-- CTA bar -->
  <rect x="350" y="460" width="500" height="60" rx="30" fill="#10B981" opacity="0.15"/>
  <text x="600" y="498" font-family="system-ui, -apple-system, sans-serif" font-size="22" font-weight="600" fill="#10B981" text-anchor="middle" letter-spacing="2">FREE · NO DOWNLOAD · PLAY NOW</text>
</svg>
