<svg xmlns="http://www.w3.org/2000/svg" width="1200" height="630" viewBox="0 0 1200 630">
  <defs>
    <linearGradient id="bg" x1="0%" y1="0%" x2="100%" y2="100%">
      <stop offset="0%" style="stop-color:#1a1a2e"/>
      <stop offset="100%" style="stop-color:#0d0d1a"/>
    </linearGradient>
  </defs>
  <rect width="1200" height="630" fill="url(#bg)"/>
  
  <rect x="70" y="90" width="65" height="75" rx="10" fill="#3B82F6" opacity="0.9"/>
  <text x="102" y="143" font-family="system-ui" font-size="36" font-weight="700" fill="white" text-anchor="middle">W</text>
  <rect x="150" y="90" width="65" height="75" rx="10" fill="#2563EB" opacity="0.85"/>
  <text x="182" y="143" font-family="system-ui" font-size="36" font-weight="700" fill="white" text-anchor="middle">O</text>
  <rect x="70" y="185" width="65" height="75" rx="10" fill="#2563EB" opacity="0.8"/>
  <text x="102" y="238" font-family="system-ui" font-size="36" font-weight="700" fill="white" text-anchor="middle">R</text>
  <rect x="150" y="185" width="65" height="75" rx="10" fill="#3B82F6" opacity="0.7"/>
  <text x="182" y="238" font-family="system-ui" font-size="36" font-weight="700" fill="white" text-anchor="middle">D</text>
  <rect x="1050" y="90" width="65" height="75" rx="10" fill="#3B82F6" opacity="0.4"/>
  <text x="1082" y="143" font-family="system-ui" font-size="30" font-weight="700" fill="white" text-anchor="middle">S</text>
  <rect x="1050" y="185" width="65" height="75" rx="10" fill="#2563EB" opacity="0.3"/>
  <text x="1082" y="238" font-family="system-ui" font-size="30" font-weight="700" fill="white" text-anchor="middle">?</text>
  <text x="600" y="200" font-family="system-ui, -apple-system, sans-serif" font-size="28" font-weight="600" fill="#3B82F6" text-anchor="middle" letter-spacing="4">TINYJOY</text>
  <text x="600" y="320" font-family="system-ui, -apple-system, sans-serif" font-size="88" font-weight="800" fill="white" text-anchor="middle">Word Scramble</text>
  <text x="600" y="400" font-family="system-ui, -apple-system, sans-serif" font-size="32" font-weight="400" fill="#a1a1aa" text-anchor="middle">Unscramble the letters to find the word</text>
  <rect x="350" y="460" width="500" height="60" rx="30" fill="#3B82F6" opacity="0.15"/>
  <text x="600" y="498" font-family="system-ui, -apple-system, sans-serif" font-size="22" font-weight="600" fill="#3B82F6" text-anchor="middle" letter-spacing="2">FREE · NO DOWNLOAD · PLAY NOW</text>
</svg>